REM DIRINDEX 1\2,1\3,1\4,1\5
REM DIRNAME "folder01","folder02","folder03","folder04","folder05"
TITLE ""
FILE "P1Q_t_1459-1468.mp3" MP3
  TRACK 01 AUDIO
    TITLE "3:cjc173_5352"
    INDEX 01 00:00:00
  TRACK 02 AUDIO
    TITLE "0:"
    INDEX 01 00:01:37
  TRACK 03 AUDIO
    TITLE "4:cjc173_5353"
    INDEX 01 00:01:59
  TRACK 04 AUDIO
    TITLE "0:"
    INDEX 01 00:04:18
  TRACK 05 AUDIO
    TITLE "5:cjc173_5354"
    INDEX 01 00:04:37
  TRACK 06 AUDIO
    TITLE "0:"
    INDEX 01 00:08:12
  TRACK 07 AUDIO
    TITLE "3:cjc173_5355"
    INDEX 01 00:08:55
  TRACK 08 AUDIO
    TITLE "0:"
    INDEX 01 00:09:66
  TRACK 09 AUDIO
    TITLE "4:cjc173_5356"
    INDEX 01 00:10:13
  TRACK 10 AUDIO
    TITLE "0:"
    INDEX 01 00:12:13
  TRACK 11 AUDIO
    TITLE "5:cjc173_5357"
    INDEX 01 00:12:33
  TRACK 12 AUDIO
    TITLE "0:"
    INDEX 01 00:17:52
  TRACK 13 AUDIO
    TITLE "3:cjc173_5358"
    INDEX 01 00:18:20
  TRACK 14 AUDIO
    TITLE "0:"
    INDEX 01 00:19:17
  TRACK 15 AUDIO
    TITLE "4:cjc173_5359"
    INDEX 01 00:19:37
  TRACK 16 AUDIO
    TITLE "0:"
    INDEX 01 00:21:69
  TRACK 17 AUDIO
    TITLE "5:cjc173_5360"
    INDEX 01 00:22:14
  TRACK 18 AUDIO
    TITLE "0:"
    INDEX 01 00:26:18
  TRACK 19 AUDIO
    TITLE "3:cjc173_5361"
    INDEX 01 00:26:68
  TRACK 20 AUDIO
    TITLE "0:"
    INDEX 01 00:27:68
  TRACK 21 AUDIO
    TITLE "4:cjc173_5362"
    INDEX 01 00:28:14
  TRACK 22 AUDIO
    TITLE "0:"
    INDEX 01 00:30:33
  TRACK 23 AUDIO
    TITLE "5:cjc173_5363"
    INDEX 01 00:30:51
  TRACK 24 AUDIO
    TITLE "0:"
    INDEX 01 00:34:58
  TRACK 25 AUDIO
    TITLE "3:cjc173_5364"
    INDEX 01 00:35:28
  TRACK 26 AUDIO
    TITLE "0:"
    INDEX 01 00:36:53
  TRACK 27 AUDIO
    TITLE "4:cjc173_5365"
    INDEX 01 00:36:73
  TRACK 28 AUDIO
    TITLE "0:"
    INDEX 01 00:38:36
  TRACK 29 AUDIO
    TITLE "5:cjc173_5366"
    INDEX 01 00:38:56
  TRACK 30 AUDIO
    TITLE "0:"
    INDEX 01 00:43:16
  TRACK 31 AUDIO
    TITLE "3:cjc173_5367"
    INDEX 01 00:43:61
  TRACK 32 AUDIO
    TITLE "0:"
    INDEX 01 00:44:74
  TRACK 33 AUDIO
    TITLE "4:cjc173_5368"
    INDEX 01 00:45:21
  TRACK 34 AUDIO
    TITLE "0:"
    INDEX 01 00:47:73
  TRACK 35 AUDIO
    TITLE "5:cjc173_5369"
    INDEX 01 00:48:17
  TRACK 36 AUDIO
    TITLE "0:"
    INDEX 01 00:53:32
  TRACK 37 AUDIO
    TITLE "3:cjc173_5370"
    INDEX 01 00:53:75
  TRACK 38 AUDIO
    TITLE "0:"
    INDEX 01 00:55:19
  TRACK 39 AUDIO
    TITLE "4:cjc173_5371"
    INDEX 01 00:55:43
  TRACK 40 AUDIO
    TITLE "0:"
    INDEX 01 00:57:59
  TRACK 41 AUDIO
    TITLE "5:cjc173_5372"
    INDEX 01 00:58:04
  TRACK 42 AUDIO
    TITLE "0:"
    INDEX 01 01:01:71
  TRACK 43 AUDIO
    TITLE "3:cjc173_5373"
    INDEX 01 01:02:39
  TRACK 44 AUDIO
    TITLE "0:"
    INDEX 01 01:03:62
  TRACK 45 AUDIO
    TITLE "4:cjc173_5374"
    INDEX 01 01:04:08
  TRACK 46 AUDIO
    TITLE "0:"
    INDEX 01 01:06:17
  TRACK 47 AUDIO
    TITLE "5:cjc173_5375"
    INDEX 01 01:06:37
  TRACK 48 AUDIO
    TITLE "0:"
    INDEX 01 01:10:36
  TRACK 49 AUDIO
    TITLE "3:cjc173_5376"
    INDEX 01 01:11:04
  TRACK 50 AUDIO
    TITLE "0:"
    INDEX 01 01:12:22
  TRACK 51 AUDIO
    TITLE "4:cjc173_5377"
    INDEX 01 01:12:41
  TRACK 52 AUDIO
    TITLE "0:"
    INDEX 01 01:15:55
  TRACK 53 AUDIO
    TITLE "5:cjc173_5378"
    INDEX 01 01:15:75
  TRACK 54 AUDIO
    TITLE "0:"
    INDEX 01 01:19:75
  TRACK 55 AUDIO
    TITLE "3:cjc173_5379"
    INDEX 01 01:20:45
  TRACK 56 AUDIO
    TITLE "0:"
    INDEX 01 01:21:62
  TRACK 57 AUDIO
    TITLE "4:cjc173_5380"
    INDEX 01 01:22:06
  TRACK 58 AUDIO
    TITLE "0:"
    INDEX 01 01:24:33
  TRACK 59 AUDIO
    TITLE "5:cjc173_5381"
    INDEX 01 01:24:52
  TRACK 60 AUDIO
    TITLE "0:"
    INDEX 01 01:29:20
